<svg width="178" height="29" viewBox="0 0 178 29" fill="none" xmlns="http://www.w3.org/2000/svg">
<path d="M20.62 8.9V16.07C17.71 14.42 15.7 11.93 14.38 8.9H20.62ZM5.26 8.9H10.06C9.55 12.2 8.32 16.13 5.26 19.4V8.9ZM22.24 5.9L20.32 8.06H14.02C13.48 6.62 13.06 5.06 12.79 3.41C14.11 3.32 15.13 3.05 15.55 2.57L12.37 0.349999L11.2 2.18H6.7L6.97 3.02H12.01C12.13 4.82 12.31 6.5 12.55 8.06H5.59L0.91 6.26V28.85H1.6C3.43 28.85 5.26 27.83 5.26 27.32V20.33C9.94 18.11 12.16 15.02 13.36 11.81C14.38 15.47 16.03 18.32 18.67 20.48C18.97 19.43 19.69 18.38 20.62 17.66V23.6C20.62 23.99 20.47 24.23 19.96 24.23C18.91 24.23 15.16 23.99 15.16 23.99V24.38C17.05 24.68 17.77 25.19 18.4 25.88C19 26.54 19.21 27.53 19.36 28.97C24.31 28.52 25.03 26.93 25.03 24.05V9.59C25.63 9.47 26.02 9.2 26.2 8.96L22.24 5.9ZM50.35 8.27C50.17 11.45 49.63 14.48 48.55 17.27C47.38 15.41 46.48 13.34 45.82 11.03C46.42 10.16 46.99 9.26 47.53 8.27H50.35ZM56.77 8.27C57.22 8.27 57.55 8.12 57.64 7.79C56.23 6.5 53.86 4.61 53.86 4.61L51.79 7.43H47.95C48.67 5.93 49.3 4.28 49.84 2.48C50.56 2.45 50.92 2.18 51.04 1.79L45.16 0.439998C44.83 4.22 43.99 8.09 42.91 11.36C41.89 10.37 40.9 9.44 40.9 9.44L39.28 11.9V4.46H43.6C44.02 4.46 44.35 4.31 44.44 3.98C43.03 2.72 40.69 0.89 40.69 0.89L38.59 3.62H28.99L29.23 4.46H35.23V21.83L33.67 22.16V9.47C34.3 9.38 34.48 9.14 34.54 8.81L30.16 8.42V22.85C29.44 23 28.84 23.09 28.36 23.18L30.49 27.74C30.85 27.62 31.15 27.29 31.3 26.9C37.66 24.02 41.8 21.77 44.47 20.12L44.41 19.79C42.67 20.21 40.96 20.6 39.28 20.96V13.1H42.28C42.01 13.73 41.77 14.33 41.5 14.9L41.83 15.11C43.09 14.15 44.23 13.04 45.22 11.78C45.7 14.75 46.33 17.48 47.26 19.94C45.31 23.36 42.31 26.3 37.72 28.58L37.9 28.88C42.7 27.59 46.21 25.64 48.76 23.18C50.05 25.43 51.67 27.32 53.74 28.85C54.28 26.9 55.42 25.7 57.52 25.25L57.61 24.95C55.03 23.78 52.87 22.31 51.07 20.45C53.44 17.03 54.55 12.86 55.06 8.27H56.77ZM59.53 5.81H74.77C75.19 5.81 75.55 5.66 75.61 5.33C74.23 4.1 71.92 2.3 71.92 2.3L69.88 4.97H67.48C69.64 4.34 70.39 0.799999 64.09 0.559999L63.88 0.709998C64.51 1.55 65.02 2.99 64.93 4.34C65.32 4.67 65.71 4.85 66.1 4.97H59.29L59.53 5.81ZM61.51 6.5C62.2 8 62.68 10.07 62.5 11.93C65.44 14.93 69.52 9.02 61.81 6.38L61.51 6.5ZM65.11 24.56V18.05H68.92V24.56H65.11ZM68.8 17.21H65.44L61.21 15.62V28.1H61.93C63.91 28.1 65.11 27.47 65.11 27.2V25.4H68.92V27.47H69.67C71.77 27.47 73.03 26.78 73.03 26.63V18.32C73.72 18.2 74.02 18.02 74.2 17.75L70.69 15.08L68.8 17.21ZM79.81 20.63V4.1H82.06C81.7 6.62 81.01 10.34 80.41 12.44C82.3 14.39 83.08 16.73 83.08 18.89C83.08 19.76 82.84 20.21 82.39 20.48C82.18 20.6 82 20.63 81.7 20.63H79.81ZM83.89 1.22L81.76 3.26H80.23L75.7 1.19V13.22C74.29 11.99 72.28 10.43 72.28 10.43L70.15 13.19H68.47C70.18 11.51 71.86 9.35 72.76 8.03C73.48 8.06 73.84 7.73 73.9 7.4L68.68 5.84C68.59 7.46 68.17 10.79 67.72 13.19H58.87L59.11 14.03H75.22C75.4 14.03 75.58 14 75.7 13.94V28.91H76.45C78.58 28.91 79.81 27.95 79.81 27.65V21.05C80.41 21.26 80.8 21.56 81.04 21.92C81.34 22.46 81.52 24.11 81.52 25.31C85.57 25.28 86.98 23.27 86.95 20.18C86.95 17.48 85.24 14.27 81.19 12.35C83.11 10.37 85.24 7.25 86.5 5.3C87.25 5.27 87.64 5.15 87.88 4.85L83.89 1.22ZM112.12 16.76C111.61 18.26 110.89 19.61 109.99 20.87C109.96 19.85 109 18.77 106.42 18.47C107.14 17.93 107.83 17.36 108.46 16.76H112.12ZM97.09 10.82H100.99C101.41 10.82 101.71 10.67 101.8 10.34C101.5 10.01 101.14 9.65 100.75 9.29C102.1 8.78 103.39 8.09 104.59 7.28C105.28 7.97 105.82 9.08 105.85 10.13C106.48 10.55 107.11 10.67 107.65 10.58C105.82 12.41 103.51 13.91 100.81 15.08C100.15 14.24 98.95 13.46 97.09 12.89V10.82ZM111.4 4.82C110.89 6.14 110.23 7.4 109.36 8.57C109.27 7.58 108.19 6.59 105.37 6.71C106.18 6.14 106.93 5.48 107.59 4.82H111.4ZM114.25 13.79L112 15.92H109.3C109.93 15.26 110.47 14.6 110.89 13.97C111.46 14.03 111.79 13.94 111.91 13.67L109.45 12.47C112.36 10.7 114.55 8.36 115.99 5.51C116.68 5.45 116.98 5.36 117.19 5.03L113.56 1.85L111.31 3.98H108.4C108.97 3.38 109.48 2.75 109.9 2.12C110.71 2.21 110.95 2.06 111.07 1.73L105.88 0.319998C104.98 3.5 102.82 7.1 100.51 9.08C99.55 8.18 98.62 7.34 98.62 7.34L97.09 9.59V5.24C98.02 5.06 98.86 4.88 99.58 4.67C100.66 5 101.38 4.91 101.77 4.58L97.09 0.589998C95.32 2.21 91.69 4.55 88.66 5.87L88.72 6.14C90.1 6.08 91.54 5.99 92.95 5.84V9.98H88.9L89.14 10.82H92.56C91.84 15.2 90.52 20.09 88.48 23.45L88.81 23.75C90.37 22.46 91.75 21.02 92.95 19.4V28.88H93.73C95.77 28.88 97.09 27.98 97.09 27.71V13.82C97.63 15.11 98.02 16.73 97.96 18.2C99.97 20.15 102.43 17.9 101.17 15.59C102.91 15.23 104.53 14.75 106 14.18C104.44 16.94 102.07 19.91 99.55 21.8L99.73 22.13C101.68 21.44 103.6 20.45 105.31 19.28C105.88 20.15 106.27 21.26 106.27 22.31C106.99 22.85 107.74 22.97 108.37 22.82C105.94 25.31 102.61 27.2 98.41 28.46L98.56 28.82C108.04 27.59 113.74 23.75 116.62 17.54C117.37 17.45 117.64 17.36 117.85 17.03L114.25 13.79ZM125.68 15.05V9.98H130.51C130.57 11.72 130.72 13.43 131.02 15.05H125.68ZM125.68 3.62H138.64V9.14H125.68V3.62ZM146.05 19.91L145.75 19.82C145.18 21.02 144.4 22.49 143.92 23.12C143.59 23.54 143.23 23.63 142.63 23.42C138.88 21.95 136.72 19.25 135.67 15.89H145.33C145.78 15.89 146.11 15.74 146.2 15.41C144.64 14.09 142.03 12.14 142.03 12.14L139.75 15.05H135.43C135.04 13.46 134.86 11.78 134.86 9.98H138.64V11.63H139.42C140.89 11.63 143.02 10.79 143.05 10.55V4.31C143.68 4.19 144.04 3.92 144.22 3.68L140.26 0.679999L138.34 2.78H126.1L121.3 1.04V22.49C121.3 23.36 121.12 23.72 119.92 24.47L122.41 28.94C122.8 28.73 123.19 28.4 123.49 27.86C127.75 25.37 130.96 23.06 132.7 21.68L132.64 21.38C130.21 22.01 127.78 22.64 125.68 23.12V15.89H131.2C132.34 20.87 135.01 25.1 140.8 27.59C142.81 28.34 145.51 28.82 146.53 27.11C147.13 26.09 146.77 25.22 145.54 24.02L146.05 19.91ZM162.73 15.05V11.87H167.53C166.27 12.92 164.89 14 163.39 15.05H162.73ZM168.37 19.34V22.25H160.24V19.67C160.51 19.55 160.75 19.46 160.99 19.34H168.37ZM160.24 26.06V23.09H168.37V26.06H160.24ZM167.92 6.98V3.26H170.44V6.98H167.92ZM155.5 3.26H157.9V6.98H155.5V3.26ZM164.14 3.26V6.98H161.65V3.26H164.14ZM171.61 15.05H169.21C171.16 13.82 172.84 12.53 174.19 11.27C174.88 11.45 175.21 11.3 175.42 11L171.94 8.81C173.17 8.66 174.61 8.21 174.64 8.03V3.95C175.27 3.8 175.66 3.53 175.84 3.29L171.97 0.409999L170.14 2.42H155.83L151.39 0.739998V9.62H151.96C153.61 9.62 155.5 8.75 155.5 8.39V7.82H170.44V8.87H170.68C170.02 9.59 169.24 10.34 168.43 11.09C167.11 9.98 165.31 8.6 165.31 8.6L163.42 11.03H162.73V9.26C163.45 9.14 163.63 8.87 163.69 8.51L158.53 8.09V11.03H151.84L152.08 11.87H158.53V15.05H149.38L149.62 15.89H162.16C161.11 16.58 160.03 17.24 158.89 17.9L155.77 16.73V19.61C153.49 20.78 151.12 21.8 148.72 22.67L148.9 23.09C151.24 22.64 153.55 22.01 155.77 21.29V28.85H156.4C158.26 28.85 160.24 27.89 160.24 27.47V26.9H168.37V28.73H169.15C170.62 28.73 172.87 27.98 172.9 27.77V20.06C173.53 19.91 173.92 19.64 174.1 19.4L170.02 16.34L168.07 18.5H162.88C164.65 17.69 166.33 16.79 167.86 15.89H176.2C176.62 15.89 176.95 15.74 177.04 15.41C175.72 14.27 173.53 12.62 173.53 12.62L171.61 15.05Z" fill="#E4E7F0"/>
</svg>
