<?xml version="1.0" encoding="UTF-8"?><svg id="_層_1" xmlns="http://www.w3.org/2000/svg" viewBox="0 0 177.3 29.7"><defs><style>.cls-1{fill:#e4e7f0;}</style></defs><path class="cls-1" d="M23.8,7.4V25.6c0,3.7-3.8,4.8-9.8,2.1l.3-1.6c4.9,.5,5.5,.1,5.5-1.6v-4.1l-1.9,2.2c-2.9-2.6-5-6.9-5.6-10.4-.8,3.2-3.9,7.9-8.3,10.6v6.4H0V7.4H10.8c-.2-1.3-.3-2.8-.3-3.8H3.3V1.5H12.7c.2,2.1,.5,4,.9,5.9h10.2Zm-14.2,2.1H3.9v11.1c2.7-2.8,4.8-6.7,5.7-11.1Zm10.2,8.9V9.6h-5.7c1.2,3.4,3,6.4,5.7,8.8Z"/><path class="cls-1" d="M43.5,22.8c-3.9,2.4-10.9,4.8-14.4,5.6l-1.1-4,1.6-.2V9.7h3.2v13.8l1.8-.3V5.2h-6v-1.9h14.9v1.9h-5.2v6.4h3.4v1.9h-3.4v9c1.7-.4,3.3-.8,4.6-1.2l.6,1.5Zm13.2,3.1l-2.6,3.8c-2.4-1.6-4.5-3.5-6.1-6-2.3,2.5-5.5,4.6-9.7,5.9l-.7-1.5c4.1-2.1,6.9-4.6,8.8-7.4-1-2.1-1.6-4.6-2.1-7.5-.8,1.5-1.7,2.9-2.6,4l-1.4-.9c2.2-3.8,3.7-11.2,4.1-15.9l4.1,.6c-.3,1.9-.8,4-1.6,6h8.5v1.9h-1.9c-.2,4.2-1.2,8.4-3.5,12,1.9,1.9,4,3.5,6.7,5Zm-8.6-8.3c1.1-2.7,1.6-5.6,1.7-8.7h-3.4c-.2,.5-.4,1-.6,1.4,.6,2.8,1.3,5.2,2.3,7.3Z"/><path class="cls-1" d="M69.5,14.1h4.5v1.9h-15.4v-1.9h3.8c-.6-2.1-1.2-4-1.8-5.9l1.5-.7c1.6,1.7,3,4,3.9,5.8l-2.2,.8h3.6c.6-1.8,1.2-4.3,1.6-6.9l3.9,1.2c-.9,2-2.2,4.1-3.4,5.7Zm3.9-7.1h-14.1v-1.9h6.2c-.8-1.4-1.6-2.7-2.4-4l1.1-1.1c1.7,1,3.4,2.3,4.8,3.9l-1.6,1.2h5.9v1.9h.1Zm-13.1,11.2h12.5v11h-3.7v-2h-5.1v2.2h-3.7v-11.2Zm3.7,7.1h5.1v-5.3h-5.1v5.3Zm14.8-1.4l.4-1.7c2.7,.5,3.2,0,3-2.9-.1-1.8-1-4.6-2.6-7.2,.7-3,1.3-5.5,1.6-8h-3V29.3h-3.7V1.3l3.7,.9h2.7l1-.8,3.6,1.5c-1.4,4-2.7,6.7-4.2,9.1,2.3,2.6,4.2,5.1,4.5,8,.6,5.5-3.7,5.9-7,3.9Z"/><path class="cls-1" d="M116.7,16.8c-3.9,9.7-11.5,11.9-18.4,12.6l-.3-1.6c3.9-.9,6.8-2,9.1-3.7-.7-1.2-1.5-2.3-2.3-3.4-1.5,1-3.2,1.9-4.9,2.5l-.7-1.5c3.4-2,5.6-4.3,7.4-6.8-2,1.5-4.3,2.7-6.8,3.6l-.7-1.5c3.5-1.8,6.1-3.8,8-6.1l-1.7,1.5c-.7-1.2-1.4-2.3-2.1-3.2-1,.9-2.1,1.8-3.5,2.6l-.9-1.2,.6-.6h-2.5v1.3c1.5,.9,2.9,2,4.1,3.2l-2.4,2.1c-.5-.9-1.1-1.9-1.8-2.8v15.4h-3.7v-11.7c-.9,2.1-2.2,4.3-3.8,6l-1.1-1.1c2.1-3.4,3.5-8,4.3-12.3h-3.6v-1.9h4.2v-3c-1.4,.2-2.8,.3-4,.4l-.2-1.6c3.5-.8,6.7-1.9,9.5-3.6l2.7,3c-1.3,.5-2.7,.9-4.2,1.2v3.7h3.3v1c2.2-2.6,3.7-5.7,4.8-8.7l3.6,1.3c-.4,.8-.8,1.5-1.2,2.2h2.6l.8-.6,3.3,1.7c-1.1,2.7-2.7,5.2-4.8,7.3l2.1,.9c-.4,.7-.9,1.5-1.4,2.2h2.2l.7-.6,3.7,1.8Zm-9.1-6.3c1-1.4,1.8-2.9,2.4-4.5h-3.6c-.5,.7-1.1,1.4-1.7,2.1,1.1,.7,2.3,1.7,2.9,2.4Zm4.8,7h-3.6c-.7,.8-1.5,1.5-2.3,2.2,1.1,.7,2.2,1.7,3,2.5,1.1-1.3,2.1-2.8,2.9-4.7Z"/><path class="cls-1" d="M142.1,29c-4.4-1.1-7.6-6-9.2-12.3h-6.7v7.4c2.7-.5,5.5-1.1,7.5-1.6l.6,1.6c-3.6,2.1-10.9,4.8-14,5.3l-1.1-4.4c.8-.1,1.9-.2,3-.3V1.7h21.8V10.5h-8.4c.2,1.4,.4,2.8,.7,4.1h9.8v2.1h-9.2c1.3,4.3,3.4,7.3,5.6,8.2,1.2,.5,1.7,.2,1.7-5.1h1.8c1.5,7.3,1.1,10.5-3.9,9.2Zm-15.8-20.4h13.8V3.8h-13.8v4.8Zm6.2,6.1c-.2-1.3-.4-2.7-.6-4.1h-5.7v4.1h6.3Z"/><path class="cls-1" d="M167.6,16l-4.2,2.1h9.8v11.3h-3.9v-1.6h-9.3v1.6h-3.9v-8.6c-2.5,.8-4.7,1.2-6.2,1.4l-.4-1.5c3.5-.9,7.8-2.3,12.1-4.6h-11.6v-1.9h9.5v-2.1h-6.6v-1.9h6.6v-1.9h4v1.9h5.9v.7c1-.8,1.9-1.7,2.8-2.7l3.1,2.3c-1.2,1.3-2.8,2.6-4.5,3.7h6.5v1.9h-9.7v-.1Zm7.7-8.3h-23.4V1.7h23.4V7.7Zm-16.8-4.2h-2.8v2.4h2.8V3.5Zm10.8,16.5h-9.3v2h9.3v-2Zm0,3.8h-9.3v2.1h9.3v-2.1Zm-4.4-20.3h-2.8v2.4h2.8V3.5Zm-.1,10.7c1.1-.7,2.1-1.4,3-2.1h-4.5v2.1h1.5Zm6.6-10.7h-3v2.4h3V3.5Z"/></svg>