<svg width="21" height="21" viewBox="0 0 21 21" fill="none" xmlns="http://www.w3.org/2000/svg">
<path d="M13.7725 14.4715L10.9707 11.6697L8.16886 14.4715L6.99921 13.3019L9.80105 10.5L6.99921 7.69817L8.16886 6.52852L10.9707 9.33037L13.7725 6.52852L14.9422 7.69817L12.1404 10.5L14.9422 13.3019L13.7725 14.4715Z" fill="#B5D200"/>
<path fill-rule="evenodd" clip-rule="evenodd" d="M5.38828 16.0824C8.47137 19.1655 13.47 19.1655 16.5531 16.0824C19.6362 12.9994 19.6362 8.00068 16.5531 4.91759C13.47 1.83451 8.47137 1.83451 5.38828 4.91759C2.30519 8.00068 2.30519 12.9994 5.38828 16.0824ZM3.89964 17.5711C7.80488 21.4763 14.1365 21.4763 18.0418 17.5711C21.947 13.6658 21.947 7.33419 18.0418 3.42895C14.1365 -0.476296 7.80488 -0.476296 3.89964 3.42895C-0.00560786 7.33419 -0.00560753 13.6658 3.89964 17.5711Z" fill="#B5D200"/>
</svg>
