<svg width="25" height="24" viewBox="0 0 25 24" fill="none" xmlns="http://www.w3.org/2000/svg">
<path d="M23.5624 16.4998C24.0802 16.4998 24.5 16.08 24.5 15.5622V5.62497C24.5 3.55709 22.8178 1.87487 20.7499 1.87487H19.531V0.937613C19.531 0.419764 19.1113 0 18.5934 0C18.0756 0 17.6558 0.419764 17.6558 0.937613V1.87523H13.3903V0.937613C13.3903 0.419764 12.9706 0 12.4527 0C11.9349 0 11.5151 0.419764 11.5151 0.937613V1.87523H7.29637V0.937613C7.29637 0.419764 6.87661 0 6.35876 0C5.84091 0 5.42115 0.419764 5.42115 0.937613V1.87523H4.2494C2.18222 1.87487 0.5 3.55709 0.5 5.62497V20.2499C0.5 22.3178 2.18222 24 4.2501 24H20.7499C22.8178 24 24.5 22.3178 24.5 20.2499C24.5 19.7321 24.0802 19.3123 23.5624 19.3123C23.0445 19.3123 22.6248 19.7321 22.6248 20.2499C22.6248 21.2838 21.7838 22.1248 20.7499 22.1248H4.2501C3.21616 22.1248 2.37523 21.2838 2.37523 20.2499V5.62497C2.37523 4.59103 3.21651 3.7501 4.2501 3.7501H5.42185V4.68771C5.42185 5.20556 5.84161 5.62532 6.35946 5.62532C6.87731 5.62532 7.29708 5.20556 7.29708 4.68771V3.7501H11.5158V4.68771C11.5158 5.20556 11.9356 5.62532 12.4534 5.62532C12.9713 5.62532 13.391 5.20556 13.391 4.68771V3.7501H17.6565V4.68771C17.6565 5.20556 18.0763 5.62532 18.5941 5.62532C19.112 5.62532 19.5317 5.20556 19.5317 4.68771V3.7501H20.7506C21.7845 3.7501 22.6255 4.59138 22.6255 5.62497V15.5625C22.6255 16.0804 23.0445 16.4998 23.5624 16.4998Z" fill="#202B40"/>
<path d="M6.57456 10.7565C7.07854 10.6375 7.39067 10.1325 7.27172 9.62856C7.15277 9.12458 6.64778 8.81245 6.1438 8.9314C5.63982 9.05035 5.32769 9.55534 5.44664 10.0593C5.56559 10.5633 6.07058 10.8754 6.57456 10.7565Z" fill="#202B40"/>
<path d="M14.7306 10.7571C15.2346 10.6381 15.5467 10.1332 15.4278 9.62917C15.3088 9.12519 14.8039 8.81306 14.2999 8.93201C13.7959 9.05096 13.4838 9.55594 13.6027 10.0599C13.7217 10.5639 14.2267 10.876 14.7306 10.7571Z" fill="#202B40"/>
<path d="M19.2566 10.5065C19.6228 10.1403 19.6228 9.54663 19.2566 9.18047C18.8905 8.81431 18.2968 8.81431 17.9307 9.18047C17.5645 9.54663 17.5645 10.1403 17.9307 10.5065C18.2968 10.8726 18.8905 10.8726 19.2566 10.5065Z" fill="#202B40"/>
<path d="M6.57443 14.8349C7.07841 14.7159 7.39054 14.2109 7.27159 13.707C7.15264 13.203 6.64765 12.8908 6.14367 13.0098C5.63969 13.1287 5.32756 13.6337 5.44651 14.1377C5.56546 14.6417 6.07045 14.9538 6.57443 14.8349Z" fill="#202B40"/>
<path d="M7.02253 18.6627C7.38869 18.2966 7.38869 17.7029 7.02253 17.3368C6.65637 16.9706 6.06271 16.9706 5.69655 17.3368C5.33039 17.7029 5.33039 18.2966 5.69655 18.6627C6.06271 19.0289 6.65637 19.0289 7.02253 18.6627Z" fill="#202B40"/>
<path d="M11.1005 10.5068C11.4666 10.1406 11.4666 9.54694 11.1005 9.18078C10.7343 8.81462 10.1407 8.81462 9.7745 9.18078C9.40834 9.54694 9.40834 10.1406 9.7745 10.5068C10.1407 10.8729 10.7343 10.8729 11.1005 10.5068Z" fill="#202B40"/>
<path d="M11.1006 14.5847C11.4668 14.2185 11.4668 13.6249 11.1006 13.2587C10.7345 12.8925 10.1408 12.8925 9.77465 13.2587C9.40849 13.6248 9.40849 14.2185 9.77465 14.5847C10.1408 14.9508 10.7345 14.9508 11.1006 14.5847Z" fill="#202B40"/>
<path d="M10.6523 18.913C11.1563 18.7941 11.4685 18.2891 11.3495 17.7851C11.2305 17.2811 10.7256 16.969 10.2216 17.088C9.7176 17.2069 9.40547 17.7119 9.52442 18.2159C9.64337 18.7199 10.1484 19.032 10.6523 18.913Z" fill="#202B40"/>
<path d="M18.3146 16.5357L19.3862 15.7454C19.7497 15.4824 19.563 14.8594 19.1137 14.8594H17.7841C17.583 14.8594 17.4052 14.781 17.3429 14.5908L16.9256 13.3038C16.8564 13.0911 16.6704 12.9845 16.4844 12.9845C16.2984 12.9845 16.1128 13.0911 16.0432 13.3038L15.6259 14.5908C15.5637 14.781 15.3858 14.8594 15.1847 14.8594H13.8572C13.4079 14.8594 13.2209 15.4824 13.5844 15.7454L14.6542 16.5357C14.8166 16.6534 14.8848 16.8616 14.8226 17.0521L14.4053 18.3311C14.2664 18.7565 14.7554 19.1105 15.119 18.8475L16.2116 18.0569C16.2928 17.9982 16.3884 17.9686 16.4841 17.9686C16.5797 17.9686 16.6753 17.9982 16.7569 18.0569L17.8495 18.8475C18.213 19.1105 18.7021 18.7568 18.5632 18.3311L18.1459 17.0521C18.0837 16.8619 18.1522 16.6534 18.3146 16.5357Z" fill="#202B40"/>
</svg>
