<svg width="65" height="56" viewBox="0 0 65 56" fill="none" xmlns="http://www.w3.org/2000/svg">
<path fill-rule="evenodd" clip-rule="evenodd" d="M50.5273 10.4745H54.2923V14.1264C54.2923 15.3355 55.3045 16.3172 56.551 16.3172C57.7975 16.3172 58.8097 15.3355 58.8097 14.1264V10.4745H62.5747C63.8212 10.4745 64.8334 9.4927 64.8334 8.28362C64.8334 7.07453 63.8212 6.09275 62.5747 6.09275H58.8097V2.44086C58.8097 1.23178 57.7975 0.25 56.551 0.25C55.3045 0.25 54.2923 1.23178 54.2923 2.44086V6.09275H50.5273C49.2808 6.09275 48.2686 7.07453 48.2686 8.28362C48.2686 9.4927 49.2808 10.4745 50.5273 10.4745Z" fill="#ADB8CC"/>
<path fill-rule="evenodd" clip-rule="evenodd" d="M62.5747 20.6976C61.3281 20.6976 60.316 21.6794 60.316 22.8884V47.7178C60.316 48.6872 59.9179 49.6142 59.2134 50.3002C58.5062 50.9835 57.5505 51.3696 56.551 51.3696H8.36576C7.36628 51.3696 6.41057 50.9835 5.70331 50.3002C4.99888 49.6142 4.60078 48.6872 4.60078 47.7178V18.5067C4.60078 16.4911 6.28775 14.8548 8.36576 14.8548H15.54C17.5361 14.8548 19.3614 13.7594 20.2536 12.03L23.1052 6.49396C23.2351 6.24885 23.4934 6.09138 23.78 6.09138H38.4828C39.7293 6.09138 40.7415 5.1096 40.7415 3.90052C40.7415 2.69144 39.7293 1.70966 38.4828 1.70966H23.78C21.7839 1.70966 19.9586 2.80509 19.0664 4.5345L16.2148 10.0705C16.0849 10.3156 15.8265 10.4731 15.54 10.4731H8.36576C3.79047 10.4745 0.083374 14.0702 0.083374 18.5067V47.7178C0.083374 49.847 0.95721 51.8927 2.50725 53.3989C4.06152 54.9038 6.16917 55.75 8.36435 55.75H56.551C58.7462 55.75 60.8552 54.9024 62.4081 53.3989C63.9595 51.8913 64.832 49.847 64.832 47.7178V22.8884C64.832 21.6794 63.8198 20.6976 62.5733 20.6976H62.5747Z" fill="#ADB8CC"/>
<path fill-rule="evenodd" clip-rule="evenodd" d="M18.153 31.6519C18.153 39.3117 24.5621 45.5269 32.4577 45.5269C40.3533 45.5269 46.7623 39.3103 46.7623 31.6519C46.7623 23.9935 40.3533 17.7769 32.4577 17.7769C24.5621 17.7769 18.153 23.9935 18.153 31.6519ZM42.2463 31.6519C42.2463 36.8922 37.8616 41.1452 32.4591 41.1452C27.0565 41.1452 22.6718 36.8922 22.6718 31.6519C22.6718 26.4116 27.0565 22.1586 32.4591 22.1586C37.8616 22.1586 42.2463 26.4116 42.2463 31.6519Z" fill="#ADB8CC"/>
</svg>
