<svg width="23" height="20" viewBox="0 0 23 20" fill="none" xmlns="http://www.w3.org/2000/svg">
<path d="M22.1197 18.7L11.8197 0.4C11.6197 0.2 11.4197 0 11.1197 0C10.8197 0 10.6197 0.1 10.4197 0.4L0.119745 18.7C-0.180255 19.3 0.119745 20 0.819745 20H21.5197C22.1197 20 22.4197 19.3 22.1197 18.7ZM10.3197 7.6C10.3197 7.5 10.4197 7.4 10.5197 7.4H11.7197C11.8197 7.4 11.9197 7.5 11.9197 7.6V12.3C11.9197 12.4 11.8197 12.5 11.7197 12.5H10.5197C10.4197 12.5 10.3197 12.4 10.3197 12.3V7.6ZM11.1197 16.5C10.8197 16.5 10.5197 16.4 10.3197 16.1C10.1197 15.9 10.0197 15.6 10.0197 15.2C10.0197 14.9 10.1197 14.6 10.3197 14.3C10.5197 14.1 10.8197 13.9 11.1197 13.9C11.4197 13.9 11.7197 14 11.9197 14.3C12.1197 14.5 12.2197 14.8 12.2197 15.2C12.2197 15.5 12.1197 15.8 11.9197 16.1C11.7197 16.4 11.4197 16.5 11.1197 16.5Z" fill="#B5D200"/>
</svg>
